<?xml version="1.0" encoding="UTF-8"?>
<svg version="1.1" xmlns="http://www.w3.org/2000/svg" width="512" height="512">
<path d="M0 0 C147.84 0 295.68 0 448 0 C448 43.56 448 87.12 448 132 C438 131 438 131 433.02734375 130.4296875 C402.65342234 127.0298423 371.63117058 132.41679458 346 150 C344.3591826 151.3290621 342.77182892 152.70755678 341.17944336 154.09399414 C334.81430179 159.5953879 329.71350555 161.18208626 321.26611328 161.44702148 C316.06088308 161.62784691 313.18758304 162.60431995 309 166 C305.57482674 169.88186303 305.56971772 173.6677788 305.6875 178.63671875 C306.08018196 181.60637606 307.42388029 183.49253683 309 186 C307.87618529 189.61687491 306.04947093 192.87238001 304.28393555 196.21289062 C299.42297491 205.4963498 295.84771635 214.92328757 293 225 C292.48759766 226.78470703 292.48759766 226.78470703 291.96484375 228.60546875 C285.13943478 257.71663167 290.78952465 287.1403365 303.10986328 313.75634766 C303.65087677 314.92589996 304.19189026 316.09545227 304.7492981 317.30044556 C305.16202972 318.19129852 305.57476135 319.08215149 306 320 C272.09672286 320.11458342 238.19349412 320.20261881 204.29006618 320.25532665 C200.28240708 320.26157976 196.27474837 320.26805142 192.26708984 320.2746582 C191.46927743 320.27596976 190.67146502 320.27728131 189.84947647 320.2786326 C176.95168811 320.30035621 164.05401181 320.33976082 151.1562898 320.38576398 C137.91022383 320.43261361 124.66421633 320.46031332 111.41807091 320.47044247 C103.25232661 320.47728407 95.08689911 320.49884848 86.92125238 320.53958233 C81.31263857 320.56612592 75.70418721 320.57397491 70.09551524 320.56750689 C66.86526013 320.56432184 63.63566831 320.57179275 60.40548706 320.59602737 C41.44725105 320.73123253 27.02014413 319.73603163 12.8515625 305.90234375 C2.93815852 295.45457412 -0.31669017 284.53103975 -0.24050903 270.45240784 C-0.24222107 269.29764954 -0.24393311 268.14289124 -0.24569702 266.95314026 C-0.24842502 263.75497931 -0.24217659 260.5569814 -0.23214546 257.35883971 C-0.22339461 253.85443831 -0.22633584 250.35004284 -0.2277813 246.84563351 C-0.22884344 240.0469772 -0.2196202 233.24837385 -0.20677864 226.44973114 C-0.19236624 218.58362904 -0.19078846 210.71755864 -0.18920898 202.85144043 C-0.17871267 182.08845191 -0.15079039 161.32547516 -0.125 140.5625 C-0.08375 94.176875 -0.0425 47.79125 0 0 Z M85.39550781 36.45239258 C81.30503786 41.17189037 80.64409562 44.40303979 80.72265625 50.4609375 C81.13376444 54.22460402 82.4828636 56.21790187 85 59 C92.54432154 64.93914675 100.37102133 64.2155471 109.5546875 64.24023438 C111.72956042 64.24990908 113.90347459 64.28095475 116.078125 64.3125 C128.14061777 64.68633223 128.14061777 64.68633223 138.60449219 59.54760742 C142.69496214 54.82810963 143.35590438 51.59696021 143.27734375 45.5390625 C142.86623556 41.77539598 141.5171364 39.78209813 139 37 C131.45567846 31.06085325 123.62897867 31.7844529 114.4453125 31.75976562 C112.27043958 31.75009092 110.09652541 31.71904525 107.921875 31.6875 C95.85938223 31.31366777 95.85938223 31.31366777 85.39550781 36.45239258 Z M197.39550781 36.45239258 C193.30503786 41.17189037 192.64409562 44.40303979 192.72265625 50.4609375 C193.13376444 54.22460402 194.4828636 56.21790187 197 59 C204.54432154 64.93914675 212.37102133 64.2155471 221.5546875 64.24023438 C223.72956042 64.24990908 225.90347459 64.28095475 228.078125 64.3125 C240.14061777 64.68633223 240.14061777 64.68633223 250.60449219 59.54760742 C254.69496214 54.82810963 255.35590438 51.59696021 255.27734375 45.5390625 C254.86623556 41.77539598 253.5171364 39.78209813 251 37 C243.45567846 31.06085325 235.62897867 31.7844529 226.4453125 31.75976562 C224.27043958 31.75009092 222.09652541 31.71904525 219.921875 31.6875 C207.85938223 31.31366777 207.85938223 31.31366777 197.39550781 36.45239258 Z M309.39550781 36.45239258 C305.30503786 41.17189037 304.64409562 44.40303979 304.72265625 50.4609375 C305.13376444 54.22460402 306.4828636 56.21790187 309 59 C316.54432154 64.93914675 324.37102133 64.2155471 333.5546875 64.24023438 C335.72956042 64.24990908 337.90347459 64.28095475 340.078125 64.3125 C352.14061777 64.68633223 352.14061777 64.68633223 362.60449219 59.54760742 C366.69496214 54.82810963 367.35590438 51.59696021 367.27734375 45.5390625 C366.86623556 41.77539598 365.5171364 39.78209813 363 37 C355.45567846 31.06085325 347.62897867 31.7844529 338.4453125 31.75976562 C336.27043958 31.75009092 334.09652541 31.71904525 331.921875 31.6875 C319.85938223 31.31366777 319.85938223 31.31366777 309.39550781 36.45239258 Z M85.39550781 100.45239258 C81.30503786 105.17189037 80.64409562 108.40303979 80.72265625 114.4609375 C81.13376444 118.22460402 82.4828636 120.21790187 85 123 C92.54432154 128.93914675 100.37102133 128.2155471 109.5546875 128.24023438 C111.72956042 128.24990908 113.90347459 128.28095475 116.078125 128.3125 C128.14061777 128.68633223 128.14061777 128.68633223 138.60449219 123.54760742 C142.69496214 118.82810963 143.35590438 115.59696021 143.27734375 109.5390625 C142.86623556 105.77539598 141.5171364 103.78209813 139 101 C131.45567846 95.06085325 123.62897867 95.7844529 114.4453125 95.75976562 C112.27043958 95.75009092 110.09652541 95.71904525 107.921875 95.6875 C95.85938223 95.31366777 95.85938223 95.31366777 85.39550781 100.45239258 Z M197.39550781 100.45239258 C193.30503786 105.17189037 192.64409562 108.40303979 192.72265625 114.4609375 C193.13376444 118.22460402 194.4828636 120.21790187 197 123 C204.54432154 128.93914675 212.37102133 128.2155471 221.5546875 128.24023438 C223.72956042 128.24990908 225.90347459 128.28095475 228.078125 128.3125 C240.14061777 128.68633223 240.14061777 128.68633223 250.60449219 123.54760742 C254.69496214 118.82810963 255.35590438 115.59696021 255.27734375 109.5390625 C254.86623556 105.77539598 253.5171364 103.78209813 251 101 C243.45567846 95.06085325 235.62897867 95.7844529 226.4453125 95.75976562 C224.27043958 95.75009092 222.09652541 95.71904525 219.921875 95.6875 C207.85938223 95.31366777 207.85938223 95.31366777 197.39550781 100.45239258 Z M309.39550781 100.45239258 C305.30503786 105.17189037 304.64409562 108.40303979 304.72265625 114.4609375 C305.13376444 118.22460402 306.4828636 120.21790187 309 123 C316.54432154 128.93914675 324.37102133 128.2155471 333.5546875 128.24023438 C335.72956042 128.24990908 337.90347459 128.28095475 340.078125 128.3125 C352.14061777 128.68633223 352.14061777 128.68633223 362.60449219 123.54760742 C366.69496214 118.82810963 367.35590438 115.59696021 367.27734375 109.5390625 C366.86623556 105.77539598 365.5171364 103.78209813 363 101 C355.45567846 95.06085325 347.62897867 95.7844529 338.4453125 95.75976562 C336.27043958 95.75009092 334.09652541 95.71904525 331.921875 95.6875 C319.85938223 95.31366777 319.85938223 95.31366777 309.39550781 100.45239258 Z M85.39550781 164.45239258 C81.30503786 169.17189037 80.64409562 172.40303979 80.72265625 178.4609375 C81.13376444 182.22460402 82.4828636 184.21790187 85 187 C92.54432154 192.93914675 100.37102133 192.2155471 109.5546875 192.24023438 C111.72956042 192.24990908 113.90347459 192.28095475 116.078125 192.3125 C128.14061777 192.68633223 128.14061777 192.68633223 138.60449219 187.54760742 C142.69496214 182.82810963 143.35590438 179.59696021 143.27734375 173.5390625 C142.86623556 169.77539598 141.5171364 167.78209813 139 165 C131.45567846 159.06085325 123.62897867 159.7844529 114.4453125 159.75976562 C112.27043958 159.75009092 110.09652541 159.71904525 107.921875 159.6875 C95.85938223 159.31366777 95.85938223 159.31366777 85.39550781 164.45239258 Z M197.39550781 164.45239258 C193.30503786 169.17189037 192.64409562 172.40303979 192.72265625 178.4609375 C193.13376444 182.22460402 194.4828636 184.21790187 197 187 C204.54432154 192.93914675 212.37102133 192.2155471 221.5546875 192.24023438 C223.72956042 192.24990908 225.90347459 192.28095475 228.078125 192.3125 C240.14061777 192.68633223 240.14061777 192.68633223 250.60449219 187.54760742 C254.69496214 182.82810963 255.35590438 179.59696021 255.27734375 173.5390625 C254.86623556 169.77539598 253.5171364 167.78209813 251 165 C243.45567846 159.06085325 235.62897867 159.7844529 226.4453125 159.75976562 C224.27043958 159.75009092 222.09652541 159.71904525 219.921875 159.6875 C207.85938223 159.31366777 207.85938223 159.31366777 197.39550781 164.45239258 Z M85.39550781 228.45239258 C81.30503786 233.17189037 80.64409562 236.40303979 80.72265625 242.4609375 C81.13376444 246.22460402 82.4828636 248.21790187 85 251 C92.54432154 256.93914675 100.37102133 256.2155471 109.5546875 256.24023438 C111.72956042 256.24990908 113.90347459 256.28095475 116.078125 256.3125 C128.14061777 256.68633223 128.14061777 256.68633223 138.60449219 251.54760742 C142.69496214 246.82810963 143.35590438 243.59696021 143.27734375 237.5390625 C142.86623556 233.77539598 141.5171364 231.78209813 139 229 C131.45567846 223.06085325 123.62897867 223.7844529 114.4453125 223.75976562 C112.27043958 223.75009092 110.09652541 223.71904525 107.921875 223.6875 C95.85938223 223.31366777 95.85938223 223.31366777 85.39550781 228.45239258 Z M197.39550781 228.45239258 C193.30503786 233.17189037 192.64409562 236.40303979 192.72265625 242.4609375 C193.13376444 246.22460402 194.4828636 248.21790187 197 251 C204.54432154 256.93914675 212.37102133 256.2155471 221.5546875 256.24023438 C223.72956042 256.24990908 225.90347459 256.28095475 228.078125 256.3125 C240.14061777 256.68633223 240.14061777 256.68633223 250.60449219 251.54760742 C254.69496214 246.82810963 255.35590438 243.59696021 255.27734375 237.5390625 C254.86623556 233.77539598 253.5171364 231.78209813 251 229 C243.45567846 223.06085325 235.62897867 223.7844529 226.4453125 223.75976562 C224.27043958 223.75009092 222.09652541 223.71904525 219.921875 223.6875 C207.85938223 223.31366777 207.85938223 223.31366777 197.39550781 228.45239258 Z " fill="#000000" transform="translate(0,160)"/>
<path d="M0 0 C5.4521357 2.53134872 6.4759981 4.71399714 10 10 C10 17.26 10 24.52 10 32 C31.12 32 52.24 32 74 32 C74 24.74 74 17.48 74 10 C79.17241379 2.24137931 79.17241379 2.24137931 84 0 C89.5997712 -0.75381535 94.33499991 -0.77303575 99.5 1.625 C102 4 102 4 106 10 C106 17.26 106 24.52 106 32 C127.12 32 148.24 32 170 32 C170 24.74 170 17.48 170 10 C175.17241379 2.24137931 175.17241379 2.24137931 180 0 C185.5997712 -0.75381535 190.33499991 -0.77303575 195.5 1.625 C198 4 198 4 202 10 C202 17.26 202 24.52 202 32 C223.12 32 244.24 32 266 32 C266 24.74 266 17.48 266 10 C271.17241379 2.24137931 271.17241379 2.24137931 276 0 C281.5997712 -0.75381535 286.33499991 -0.77303575 291.5 1.625 C295.06513686 5.01188002 297.69639119 7.58455122 298.3203125 12.54833984 C298.39313609 15.50022395 298.3490024 18.42396697 298.25 21.375 C298.23195313 22.39722656 298.21390625 23.41945313 298.1953125 24.47265625 C298.14839491 26.98274749 298.08276729 29.49087764 298 32 C298.71430176 31.97381592 299.42860352 31.94763184 300.16455078 31.9206543 C332.01866093 30.9070911 332.01866093 30.9070911 344.9765625 42.05859375 C353.76031994 50.48625292 358.64279703 58.24978961 362 70 C362 89.14 362 108.28 362 128 C214.16 128 66.32 128 -86 128 C-86 59.29050279 -86 59.29050279 -71.90234375 44.8515625 C-60.73814106 34.25836841 -49.51854413 31.66285753 -34.5625 31.875 C-32.74975586 31.88853516 -32.74975586 31.88853516 -30.90039062 31.90234375 C-27.93338722 31.92579832 -24.96679857 31.95862206 -22 32 C-22.02094727 31.36497559 -22.04189453 30.72995117 -22.06347656 30.07568359 C-22.14704581 27.17561924 -22.19878774 24.27580884 -22.25 21.375 C-22.28351562 20.37597656 -22.31703125 19.37695312 -22.3515625 18.34765625 C-22.43315123 12.18770715 -22.1132688 8.68372214 -18 4 C-12.72867143 -1.00776214 -6.89190982 -0.92775709 0 0 Z " fill="#000000" transform="translate(86,0)"/>
<path d="M0 0 C19.41513413 15.83036047 34.05409201 37.67987498 37 63 C38.99936484 91.27427967 34.23100056 117.17178286 15.328125 139.16015625 C-1.08462646 157.71519166 -23.00986243 171.44500696 -48.21777344 173.22753906 C-77.2855558 174.51962109 -102.15293788 168.54301128 -124.1875 148.6875 C-137.24423882 136.4909748 -146.54946777 122.03291322 -152 105 C-152.3196875 104.02933594 -152.639375 103.05867188 -152.96875 102.05859375 C-159.45049562 78.08213658 -155.47410476 51.71925718 -144 30 C-130.70999787 6.97303712 -109.81365095 -9.2252281 -84.38574219 -16.83691406 C-55.40541197 -24.5922137 -23.67765233 -18.10445314 0 0 Z M-70 34 C-75.93914675 41.54432154 -75.2155471 49.37102133 -75.24023438 58.5546875 C-75.24990908 60.72956042 -75.28095475 62.90347459 -75.3125 65.078125 C-75.60789977 77.01785862 -75.60789977 77.01785862 -70.72460938 87.5690918 C-63.69215608 94.09506874 -54.2318175 93.34301457 -45.29443359 93.31567383 C-43.13717897 93.31251782 -40.98130409 93.33600561 -38.82421875 93.36132812 C-26.81136308 93.68078529 -26.81136308 93.68078529 -16.39501953 88.54785156 C-12.30568566 83.82729745 -11.64409054 80.59735183 -11.72265625 74.5390625 C-12.13376444 70.77539598 -13.4828636 68.78209813 -16 66 C-22.27468509 61.06035429 -27.54619716 60.84727486 -35.3125 60.9375 C-36.05306641 60.94201172 -36.79363281 60.94652344 -37.55664062 60.95117188 C-39.37112899 60.96287825 -41.18557534 60.98081102 -43 61 C-42.96519531 59.94941406 -42.93039062 58.89882813 -42.89453125 57.81640625 C-42.21403387 45.2818857 -42.21403387 45.2818857 -47.46484375 34.38671875 C-52.17587926 30.29767815 -55.41203334 29.64421225 -61.4609375 29.72265625 C-65.22460402 30.13376444 -67.21790187 31.4828636 -70 34 Z " fill="#000000" transform="translate(475,339)"/>
</svg>
